<?xml version="1.0" encoding="UTF-8" standalone="no"?>
<!DOCTYPE svg PUBLIC "-//W3C//DTD SVG 1.1//EN"
 "http://www.w3.org/Graphics/SVG/1.1/DTD/svg11.dtd">
<!-- Generated by graphviz version 2.42.3 (20191010.1750)
 -->
<!-- Title: %3 Pages: 1 -->
<svg width="327pt" height="188pt"
 viewBox="0.00 0.00 326.77 188.00" xmlns="http://www.w3.org/2000/svg" xmlns:xlink="http://www.w3.org/1999/xlink">
<g id="graph0" class="graph" transform="scale(1 1) rotate(0) translate(4 184)">
<title>%3</title>
<!-- SuperClass -->
<g id="node1" class="node">
<title>SuperClass</title>
<polygon fill="none" stroke="lightblue" points="174.62,-180 95.62,-180 95.62,-144 174.62,-144 174.62,-180"/>
<text text-anchor="middle" x="135.12" y="-157.8" font-family="Times,serif" font-size="14.00" fill="lightblue">SuperClass</text>
</g>
<!-- SubClassA -->
<g id="node2" class="node">
<title>SubClassA</title>
<polygon fill="none" stroke="lightblue" points="78.35,-108 -0.12,-108 -0.12,-72 78.35,-72 78.35,-108"/>
<text text-anchor="middle" x="39.12" y="-85.8" font-family="Times,serif" font-size="14.00" fill="lightblue">SubClassA</text>
</g>
<!-- SubClassA&#45;&gt;SuperClass -->
<g id="edge1" class="edge">
<title>SubClassA&#45;&gt;SuperClass</title>
<path fill="none" stroke="lightgreen" d="M39.12,-108.17C39.12,-129.5 39.12,-162 39.12,-162 39.12,-162 85.52,-162 85.52,-162"/>
<polygon fill="lightgreen" stroke="lightgreen" points="85.52,-165.5 95.52,-162 85.52,-158.5 85.52,-165.5"/>
</g>
<!-- SubClassB -->
<g id="node3" class="node">
<title>SubClassB</title>
<polygon fill="none" stroke="lightblue" points="174.08,-108 96.15,-108 96.15,-72 174.08,-72 174.08,-108"/>
<text text-anchor="middle" x="135.12" y="-85.8" font-family="Times,serif" font-size="14.00" fill="lightblue">SubClassB</text>
</g>
<!-- SubClassB&#45;&gt;SuperClass -->
<g id="edge2" class="edge">
<title>SubClassB&#45;&gt;SuperClass</title>
<path fill="none" stroke="lightgreen" d="M135.12,-108.17C135.12,-108.17 135.12,-133.59 135.12,-133.59"/>
<polygon fill="lightgreen" stroke="lightgreen" points="131.62,-133.59 135.12,-143.59 138.62,-133.59 131.62,-133.59"/>
</g>
<!-- Decorator -->
<g id="node4" class="node">
<title>Decorator</title>
<polygon fill="none" stroke="lightblue" points="264.08,-108 192.15,-108 192.15,-72 264.08,-72 264.08,-108"/>
<text text-anchor="middle" x="228.12" y="-85.8" font-family="Times,serif" font-size="14.00" fill="lightblue">Decorator</text>
</g>
<!-- Decorator&#45;&gt;SuperClass -->
<g id="edge3" class="edge">
<title>Decorator&#45;&gt;SuperClass</title>
<path fill="none" stroke="lightgreen" d="M228.12,-108.17C228.12,-129.5 228.12,-162 228.12,-162 228.12,-162 184.83,-162 184.83,-162"/>
<polygon fill="lightgreen" stroke="lightgreen" points="184.83,-158.5 174.83,-162 184.83,-165.5 184.83,-158.5"/>
</g>
<!-- DecoratorA -->
<g id="node5" class="node">
<title>DecoratorA</title>
<polygon fill="none" stroke="lightblue" points="219.19,-36 137.04,-36 137.04,0 219.19,0 219.19,-36"/>
<text text-anchor="middle" x="178.12" y="-13.8" font-family="Times,serif" font-size="14.00" fill="lightblue">DecoratorA</text>
</g>
<!-- DecoratorA&#45;&gt;Decorator -->
<g id="edge4" class="edge">
<title>DecoratorA&#45;&gt;Decorator</title>
<path fill="none" stroke="lightgreen" d="M205.64,-36.17C205.64,-36.17 205.64,-61.59 205.64,-61.59"/>
<polygon fill="lightgreen" stroke="lightgreen" points="202.14,-61.59 205.64,-71.59 209.14,-61.59 202.14,-61.59"/>
</g>
<!-- DecoratorB -->
<g id="node6" class="node">
<title>DecoratorB</title>
<polygon fill="none" stroke="lightblue" points="318.92,-36 237.31,-36 237.31,0 318.92,0 318.92,-36"/>
<text text-anchor="middle" x="278.12" y="-13.8" font-family="Times,serif" font-size="14.00" fill="lightblue">DecoratorB</text>
</g>
<!-- DecoratorB&#45;&gt;Decorator -->
<g id="edge5" class="edge">
<title>DecoratorB&#45;&gt;Decorator</title>
<path fill="none" stroke="lightgreen" d="M250.78,-36.17C250.78,-36.17 250.78,-61.59 250.78,-61.59"/>
<polygon fill="lightgreen" stroke="lightgreen" points="247.28,-61.59 250.78,-71.59 254.28,-61.59 247.28,-61.59"/>
</g>
</g>
</svg>
